<svg width="0" height="0" class="hidden">
  <symbol viewBox="0 0 24 24" xmlns="http://www.w3.org/2000/svg" id="facebook">
    <path d="M2.707 24h8.804a.75.75 0 0 0 .75-.75l-.011-7a.75.75 0 0 0-.75-.75H9.25V13h2.25a.75.75 0 0 0 .75-.75V9.433A4.438 4.438 0 0 1 16.683 5h2.067v2.5H17.5c-.965 0-1.75.785-1.75 1.75v3c0 .414.336.75.75.75h3.04l-.625 2.5H16.5a.75.75 0 0 0-.75.75v7c0 .414.336.75.75.75h4.793A2.71 2.71 0 0 0 24 21.293V2.707A2.71 2.71 0 0 0 21.293 0H2.707A2.71 2.71 0 0 0 0 2.707v18.587A2.71 2.71 0 0 0 2.707 24zM1.5 2.707c0-.666.541-1.207 1.207-1.207h18.587c.666 0 1.207.541 1.207 1.207v18.587c0 .666-.541 1.207-1.207 1.207H17.25V17h2.25a.75.75 0 0 0 .728-.568l1-4a.75.75 0 0 0-.728-.932h-3.25V9.25c0-.136.114-.25.25-.25h2a.75.75 0 0 0 .75-.75v-4a.75.75 0 0 0-.75-.75h-2.817a5.94 5.94 0 0 0-5.933 5.933V11.5H8.5a.75.75 0 0 0-.75.75v4c0 .414.336.75.75.75h2.25v5.5H2.707A1.208 1.208 0 0 1 1.5 21.293z"></path>
  </symbol>
  <symbol viewBox="0 1 511 511.999" xmlns="http://www.w3.org/2000/svg" id="home">
    <path d="M498.7 222.695c-.016-.011-.028-.027-.04-.039L289.805 13.81C280.902 4.902 269.066 0 256.477 0c-12.59 0-24.426 4.902-33.332 13.809L14.398 222.55c-.07.07-.144.144-.21.215-18.282 18.386-18.25 48.218.09 66.558 8.378 8.383 19.44 13.235 31.273 13.746.484.047.969.07 1.457.07h8.32v153.696c0 30.418 24.75 55.164 55.168 55.164h81.711c8.285 0 15-6.719 15-15V376.5c0-13.879 11.293-25.168 25.172-25.168h48.195c13.88 0 25.168 11.29 25.168 25.168V497c0 8.281 6.715 15 15 15h81.711c30.422 0 55.168-24.746 55.168-55.164V303.14h7.719c12.586 0 24.422-4.903 33.332-13.813 18.36-18.367 18.367-48.254.027-66.633zm-21.243 45.422a17.03 17.03 0 0 1-12.117 5.024h-22.72c-8.285 0-15 6.714-15 15v168.695c0 13.875-11.289 25.164-25.168 25.164h-66.71V376.5c0-30.418-24.747-55.168-55.169-55.168H232.38c-30.422 0-55.172 24.75-55.172 55.168V482h-66.71c-13.876 0-25.169-11.29-25.169-25.164V288.14c0-8.286-6.715-15-15-15H48a13.9 13.9 0 0 0-.703-.032c-4.469-.078-8.66-1.851-11.8-4.996-6.68-6.68-6.68-17.55 0-24.234.003 0 .003-.004.007-.008l.012-.012L244.363 35.02A17.003 17.003 0 0 1 256.477 30c4.574 0 8.875 1.781 12.113 5.02l208.8 208.796.098.094c6.645 6.692 6.633 17.54-.031 24.207zm0 0"></path>
  </symbol>
  <symbol viewBox="0 0 24 24" xmlns="http://www.w3.org/2000/svg" id="instagram">
    <path d="M4.75 24h14.5A4.756 4.756 0 0 0 24 19.25V4.75A4.756 4.756 0 0 0 19.25 0H4.75A4.756 4.756 0 0 0 0 4.75v14.5A4.756 4.756 0 0 0 4.75 24zM1.5 4.75A3.254 3.254 0 0 1 4.75 1.5h14.5a3.254 3.254 0 0 1 3.25 3.25v14.5a3.254 3.254 0 0 1-3.25 3.25H4.75a3.254 3.254 0 0 1-3.25-3.25z"></path>
    <path d="M12 18.13c3.38 0 6.13-2.75 6.13-6.13S15.38 5.87 12 5.87 5.87 8.62 5.87 12s2.75 6.13 6.13 6.13zm0-10.76c2.553 0 4.63 2.077 4.63 4.63s-2.077 4.63-4.63 4.63S7.37 14.553 7.37 12 9.447 7.37 12 7.37zm6.358-.008c.986 0 1.729-.74 1.729-1.721 0-1.023-.782-1.721-1.728-1.721-.986 0-1.729.74-1.729 1.721 0 1.021.778 1.721 1.728 1.721zm.177-1.886c.316.279-.405.618-.405.166 0-.27.367-.2.405-.166z"></path>
  </symbol>
  <symbol viewBox="0 0 512 512" xmlns="http://www.w3.org/2000/svg" id="mail">
    <path d="M467 61H45C20.187 61 0 81.187 0 106v300c0 24.813 20.187 45 45 45h422c24.813 0 45-20.187 45-45V106c0-24.813-20.187-45-45-45zm-65.19 30L256 199.785 110.19 91zM45 91h15.021L247.03 230.523c2.661 1.985 5.815 2.977 8.97 2.977s6.309-.992 8.97-2.977L451.979 91H467c8.265 0 14.989 6.719 14.999 14.982L256 274.778 30.001 105.982C30.011 97.719 36.735 91 45 91zm202.024 214.518c2.662 1.988 5.819 2.982 8.976 2.982s6.314-.994 8.976-2.982L422 188.238V421H90V188.238zM30 406V143.425l30 22.407V421H45c-8.271 0-15-6.729-15-15zm437 15h-15V165.832l30-22.407V406c0 8.271-6.729 15-15 15z"></path>
  </symbol>
  <symbol viewBox="0 0 24 24" xmlns="http://www.w3.org/2000/svg" id="telegram">
    <path d="M.415 11.196l5.869 2.925a.752.752 0 0 0 .712-.023l5.224-3.037-3.162 2.802a.751.751 0 0 0-.253.562v6.825c0 .72.919 1.023 1.35.451l2.537-3.373 6.274 3.573a.75.75 0 0 0 1.106-.504l3.913-19.5a.75.75 0 0 0-1.008-.846L.477 9.826a.75.75 0 0 0-.062 1.37zm21.83-8.249l-3.439 17.137-5.945-3.386a.752.752 0 0 0-.971.201l-1.585 2.107v-4.244l8.551-7.576c.677-.599-.101-1.664-.874-1.21l-11.39 6.622L2.6 10.609z"></path>
  </symbol>
  <symbol viewBox="0 0 24 24" xmlns="http://www.w3.org/2000/svg" id="twitter">
    <path d="M.473 19.595a13.928 13.928 0 0 0 7.478 2.155c3.91 0 7.493-1.502 10.09-4.229 2.485-2.61 3.852-6.117 3.784-9.676.942-.806 2.05-2.345 2.05-3.845a.75.75 0 0 0-1.13-.647c-.885.52-1.692.656-2.522.423-1.695-1.652-4.218-2-6.344-.854-1.858 1-2.891 2.83-2.798 4.83A12.427 12.427 0 0 1 3.02 3.349a.75.75 0 0 0-1.226.1C.82 5.117.83 7.05 1.677 8.611a.78.78 0 0 0-.652.777 5.29 5.29 0 0 0 1.843 3.995.749.749 0 0 0-.192.777 5.384 5.384 0 0 0 3.047 3.264 8.732 8.732 0 0 1-4.756.794c-.784-.106-1.171.948-.494 1.377zm7.683-1.914c.561-.431.263-1.329-.441-1.344a3.912 3.912 0 0 1-3.072-1.598 5.29 5.29 0 0 0 1.024-.164c.761-.206.725-1.304-.048-1.459a3.85 3.85 0 0 1-2.917-2.62c.377.093.761.145 1.144.152.759.004 1.046-.969.427-1.376-1.395-.919-1.99-2.542-1.596-4.068a13.943 13.943 0 0 0 9.237 4.123.749.749 0 0 0 .767-.917c-.475-2.059.675-3.502 1.91-4.167 1.222-.66 3.184-.866 4.688.712.447.471 1.955.489 2.722.31-.344.648-.873 1.263-1.368 1.609a.75.75 0 0 0-.319.651c.161 3.285-1.063 6.551-3.358 8.96-2.312 2.427-5.509 3.764-9.004 3.764-1.39 0-2.753-.226-4.041-.662 1.54-.298 3.003-.95 4.245-1.906z"></path>
  </symbol>
  <symbol viewBox="0 0 24 24" xmlns="http://www.w3.org/2000/svg" id="vk">
    <path d="M12.145 19.5c3.472 0 2.234-2.198 2.502-2.83-.004-.472-.008-.926.008-1.202.22.062.739.325 1.811 1.367 1.655 1.67 2.078 2.665 3.415 2.665h2.461c.78 0 1.186-.323 1.389-.594.196-.262.388-.722.178-1.438-.549-1.724-3.751-4.701-3.95-5.015a2.84 2.84 0 0 1 .103-.175h-.002c.632-.835 3.044-4.449 3.399-5.895a.019.019 0 0 0 .002-.008c.192-.66.016-1.088-.166-1.33-.274-.362-.71-.545-1.299-.545h-2.461c-.824 0-1.449.415-1.765 1.172-.529 1.345-2.015 4.111-3.129 5.09a64.114 64.114 0 0 1 .007-3.233c.036-1.535.152-3.029-1.441-3.029H9.339c-.998 0-1.953 1.09-.919 2.384.904 1.134.325 1.766.52 4.912-.76-.815-2.112-3.016-3.068-5.829-.268-.761-.674-1.466-1.817-1.466H1.594C.596 4.501 0 5.045 0 5.956 0 8.002 4.529 19.5 12.145 19.5zM4.055 6.001c.217 0 .239 0 .4.457.979 2.883 3.175 7.149 4.779 7.149 1.205 0 1.205-1.235 1.205-1.7l-.001-3.702C10.372 6.98 9.926 6.37 9.633 6l3.508.004c.002.017-.02 4.095.01 5.083 0 1.403 1.114 2.207 2.853.447 1.835-2.071 3.104-5.167 3.155-5.293.075-.18.14-.241.376-.241h2.471l-.002.009c-.225 1.05-2.446 4.396-3.189 5.435l-.034.05c-.327.534-.593 1.124.045 1.954h.001c.058.07.209.234.429.462.684.706 3.03 3.12 3.238 4.08-.138.022-.288.006-2.613.011-.495 0-.882-.74-2.359-2.23-1.328-1.292-2.19-1.82-2.975-1.82-1.524 0-1.413 1.237-1.399 2.733.005 1.622-.005 1.109.006 1.211-.089.035-.344.105-1.009.105C5.8 18 1.668 7.929 1.509 6.004c.055-.005.812-.002 2.546-.003z"></path>
  </symbol>
</svg>